# xmcd
#
# Track frame offsets: 
#        150
#        18902
#        39186
#        58300
#        79441
#        100742
#        122865
#        142077
#        160745
#        183133
#        206942
#        231100
#        250103
#        272442
#        291500
#
# Disc length: 4161 seconds
#
# Revision: 0
# Processed by: cddbd v1.5.2PL0 Copyright (c) Steve Scherf et al.
# Submitted via: ExactAudioCopy v0.95b3
#
DISCID=d7103f0f
DTITLE=Chicago  - Stone Of Sisyphus  FLAC
DYEAR=1900
DGENRE=
TTITLE0=Stone of Sisyphus
TTITLE1=Bigger Than Elvis
TTITLE2=All the Years
TTITLE3=Mah-Jong
TTITLE4=Sleeping in the Middle of the Bed
TTITLE5=Let's Take a Lifetime
TTITLE6=The Pull
TTITLE7=Here With Me (A Candle for the Dark)
TTITLE8=Plaid
TTITLE9=Cry for the Lost
TTITLE10=The Show Must Go On
TTITLE11=Love is Forever (Demo)
TTITLE12=Mah-Jong (Demo)
TTITLE13=Let's Take a Lifetime (Demo)
TTITLE14=Stone of Sisyphus (No Rhythm Loop)
EXTD=
EXTT0=
EXTT1=
EXTT2=
EXTT3=
EXTT4=
EXTT5=
EXTT6=
EXTT7=
EXTT8=
EXTT9=
EXTT10=
EXTT11=
EXTT12=
EXTT13=
EXTT14=
PLAYORDER=
